<svg width="106" height="29" viewBox="0 0 106 29" fill="none" xmlns="http://www.w3.org/2000/svg">
<g clip-path="url(#clip0_1_1275)">
<path fill-rule="evenodd" clip-rule="evenodd" d="M27.3995 2.6581C26.3677 0.692497 22.9741 1.3099 20.0411 2.0953C7.29135 6.7937 2.78055 16.3418 1.19575 22.03C1.11735 22.1728 1.06975 22.3366 1.06555 22.5116C0.43835 24.9252 0.35295 26.5338 0.35155 26.587C0.32775 27.1652 0.77715 27.6538 1.35535 27.6776C1.37075 27.679 1.38615 27.679 1.40155 27.679C1.96015 27.679 2.42495 27.238 2.45015 26.6738C2.45715 26.503 2.52155 25.3284 2.91775 23.5728C6.42895 23.4244 9.96395 22.1168 13.4359 19.6752C13.7075 19.4848 13.8727 19.1768 13.8825 18.8464C13.8923 18.5146 13.7439 18.1982 13.4849 17.9938L11.8833 16.7254L17.1389 16.2102C17.3531 16.1892 17.5547 16.1038 17.7185 15.9638C17.8319 15.8686 20.5073 13.5782 23.0525 10.9083C26.9235 6.8483 28.2633 4.3045 27.3995 2.6581Z" fill="#335CFF"/>
<path fill-rule="evenodd" clip-rule="evenodd" d="M21.1785 25.5798H12.2045C11.6249 25.5798 11.1545 26.0502 11.1545 26.6298C11.1545 27.2094 11.6249 27.6798 12.2045 27.6798H21.1785C21.7581 27.6798 22.2285 27.2094 22.2285 26.6298C22.2285 26.0502 21.7581 25.5798 21.1785 25.5798Z" fill="#335CFF"/>
<path d="M49.362 4.634C49.7607 4.634 50.098 4.73367 50.374 4.933C50.65 5.117 50.788 5.347 50.788 5.623C50.788 6.11367 50.6347 6.51233 50.328 6.819C50.0213 7.11033 49.5843 7.256 49.017 7.256C48.1277 7.256 47.453 7.26367 46.993 7.279C46.9623 7.463 46.8243 8.291 46.579 9.763C46.303 11.4037 46.1343 12.408 46.073 12.776L45.59 15.789C45.2527 18.043 44.9843 19.929 44.785 21.447C45.107 21.4317 45.544 21.424 46.096 21.424C46.9087 21.424 47.4607 21.5313 47.752 21.746C48.0433 21.9607 48.189 22.2827 48.189 22.712C48.189 23.1107 48.028 23.448 47.706 23.724C47.3993 24 46.9623 24.138 46.395 24.138C46.0117 24.138 45.406 24.1227 44.578 24.092C43.8113 24.0613 43.3053 24.046 43.06 24.046C42.094 24.046 41.036 24.1303 39.886 24.299C39.38 24.3757 39.0197 24.414 38.805 24.414C38.4677 24.414 38.184 24.322 37.954 24.138C37.724 23.954 37.609 23.6857 37.609 23.333C37.609 22.781 37.8543 22.3517 38.345 22.045C38.8357 21.7383 39.5257 21.5773 40.415 21.562L41.496 21.539L41.565 21.033C41.933 18.5797 42.2013 16.847 42.37 15.835L42.876 12.822C43.1827 11.0433 43.4587 9.211 43.704 7.325L41.772 7.348C41.22 7.348 40.8367 7.26367 40.622 7.095C40.4227 6.911 40.323 6.658 40.323 6.336C40.323 5.29333 41.0743 4.73367 42.577 4.657C43.2823 4.62633 44.141 4.611 45.153 4.611L49.362 4.634ZM54.2637 24.115C53.6964 24.115 53.29 23.9923 53.0447 23.747C52.7994 23.4863 52.6767 23.0033 52.6767 22.298C52.6767 21.8227 52.7227 21.2477 52.8147 20.573C52.9067 19.8983 53.0677 18.8787 53.2977 17.514C53.3284 17.33 53.451 16.5863 53.6657 15.283C53.8804 13.9643 54.072 12.5843 54.2407 11.143C54.394 9.91633 54.4707 8.99633 54.4707 8.383C54.4707 7.693 54.2177 7.348 53.7117 7.348C53.3284 7.348 52.8454 7.555 52.2627 7.969C51.6954 8.36767 51.082 9.01167 50.4227 9.901C50.208 10.1923 49.9704 10.338 49.7097 10.338C49.495 10.338 49.3034 10.2383 49.1347 10.039C48.9814 9.82433 48.9047 9.58667 48.9047 9.326C48.9047 9.06533 48.9507 8.82 49.0427 8.59C49.1347 8.34467 49.3034 8.05333 49.5487 7.716C50.3 6.68867 51.1357 5.899 52.0557 5.347C52.9757 4.77967 53.9417 4.496 54.9537 4.496C55.797 4.496 56.4257 4.75667 56.8397 5.278C57.269 5.79933 57.4837 6.55833 57.4837 7.555C57.4837 8.44433 57.361 9.73233 57.1157 11.419C57.8824 9.14967 58.856 7.43233 60.0367 6.267C61.2174 5.08633 62.605 4.496 64.1997 4.496C65.457 4.496 66.4 4.85633 67.0287 5.577C67.6727 6.28233 67.9947 7.233 67.9947 8.429C67.9947 9.10367 67.895 9.924 67.6957 10.89L66.2927 17.468C66.1394 18.2347 66.0627 18.894 66.0627 19.446C66.0627 20.09 66.2084 20.573 66.4997 20.895C66.8064 21.217 67.228 21.378 67.7647 21.378C68.2707 21.378 68.7614 21.2093 69.2367 20.872C69.7274 20.5347 70.3024 19.975 70.9617 19.193C71.1457 18.9783 71.3527 18.871 71.5827 18.871C71.782 18.871 71.9354 18.963 72.0427 19.147C72.1654 19.331 72.2267 19.584 72.2267 19.906C72.2267 20.504 72.081 20.9793 71.7897 21.332C70.9924 22.298 70.2027 23.0033 69.4207 23.448C68.6387 23.8927 67.8184 24.115 66.9597 24.115C65.6564 24.115 64.6367 23.7317 63.9007 22.965C63.1647 22.183 62.7967 21.1403 62.7967 19.837C62.7967 19.331 62.835 18.779 62.9117 18.181C63.0037 17.583 63.1494 16.824 63.3487 15.904L64.2687 11.695C64.2994 11.557 64.353 11.3117 64.4297 10.959C64.5064 10.6063 64.5677 10.2767 64.6137 9.97C64.6597 9.648 64.6827 9.33367 64.6827 9.027C64.6827 8.53633 64.5447 8.14533 64.2687 7.854C63.9927 7.56267 63.6017 7.417 63.0957 7.417C62.1757 7.417 61.2557 7.90767 60.3357 8.889C59.4157 9.87033 58.5647 11.4573 57.7827 13.65C57.0007 15.8273 56.3874 18.618 55.9427 22.022C55.8354 22.804 55.6744 23.3483 55.4597 23.655C55.2604 23.9617 54.8617 24.115 54.2637 24.115ZM81.6288 16.939C81.8282 16.939 81.9815 17.0387 82.0888 17.238C82.1962 17.4373 82.2498 17.6903 82.2498 17.997C82.2498 18.733 82.0275 19.17 81.5828 19.308C80.6628 19.63 79.6508 19.814 78.5468 19.86C78.2555 21.148 77.6805 22.183 76.8218 22.965C75.9632 23.7317 74.9895 24.115 73.9008 24.115C72.9808 24.115 72.1912 23.8927 71.5318 23.448C70.8878 23.0033 70.3972 22.413 70.0598 21.677C69.7225 20.941 69.5538 20.1437 69.5538 19.285C69.5538 18.1197 69.7762 17.0847 70.2208 16.18C70.6655 15.26 71.2788 14.547 72.0608 14.041C72.8428 13.5197 73.7092 13.259 74.6598 13.259C75.8252 13.259 76.7605 13.6653 77.4658 14.478C78.1865 15.2753 78.6082 16.2643 78.7308 17.445C79.4515 17.399 80.3102 17.2457 81.3068 16.985C81.4295 16.9543 81.5368 16.939 81.6288 16.939ZM74.0848 21.677C74.5755 21.677 74.9972 21.4777 75.3498 21.079C75.7178 20.6803 75.9632 20.1053 76.0858 19.354C75.6105 19.032 75.2425 18.6103 74.9818 18.089C74.7365 17.5677 74.6138 17.0157 74.6138 16.433C74.6138 16.1877 74.6368 15.9423 74.6828 15.697H74.5678C73.9545 15.697 73.4408 15.996 73.0268 16.594C72.6282 17.1767 72.4288 18.0047 72.4288 19.078C72.4288 19.9213 72.5898 20.5653 72.9118 21.01C73.2492 21.4547 73.6402 21.677 74.0848 21.677ZM90.6578 18.871C90.8571 18.871 91.0104 18.963 91.1178 19.147C91.2404 19.331 91.3018 19.584 91.3018 19.906C91.3018 20.5193 91.1561 20.9947 90.8648 21.332C90.2054 22.1447 89.4848 22.8117 88.7028 23.333C87.9208 23.8543 87.0238 24.115 86.0118 24.115C82.8838 24.115 81.3198 21.9147 81.3198 17.514C81.3198 16.8393 81.3428 16.157 81.3888 15.467H80.4918C80.0318 15.467 79.7174 15.3827 79.5488 15.214C79.3954 15.0453 79.3188 14.777 79.3188 14.409C79.3188 13.5503 79.6638 13.121 80.3538 13.121H81.6648C81.9254 11.4343 82.3241 9.89333 82.8608 8.498C83.3974 7.10267 84.0414 5.991 84.7928 5.163C85.5594 4.335 86.3798 3.921 87.2538 3.921C87.8978 3.921 88.4038 4.20467 88.7718 4.772C89.1398 5.33933 89.3238 6.05233 89.3238 6.911C89.3238 9.28767 88.3271 11.3577 86.3338 13.121H88.9098C89.1551 13.121 89.3314 13.1747 89.4388 13.282C89.5461 13.3893 89.5998 13.5887 89.5998 13.88C89.5998 14.938 88.7334 15.467 87.0008 15.467H84.1948C84.1641 16.2337 84.1488 16.8317 84.1488 17.261C84.1488 18.8557 84.3328 19.975 84.7008 20.619C85.0841 21.263 85.6821 21.585 86.4948 21.585C87.1541 21.585 87.7368 21.3857 88.2428 20.987C88.7488 20.5883 89.3468 19.9903 90.0368 19.193C90.2208 18.9783 90.4278 18.871 90.6578 18.871ZM86.6328 6.129C86.4028 6.129 86.1421 6.42033 85.8508 7.003C85.5748 7.57033 85.3064 8.36767 85.0458 9.395C84.8004 10.407 84.5934 11.534 84.4248 12.776C85.3294 11.994 86.0041 11.12 86.4488 10.154C86.9088 9.17267 87.1388 8.28333 87.1388 7.486C87.1388 6.58133 86.9701 6.129 86.6328 6.129ZM99.2271 18.871C99.4264 18.871 99.5797 18.963 99.6871 19.147C99.8097 19.331 99.8711 19.584 99.8711 19.906C99.8711 20.5193 99.7254 20.9947 99.4341 21.332C98.8667 22.022 98.0617 22.6583 97.0191 23.241C95.9917 23.8237 94.8877 24.115 93.7071 24.115C92.0971 24.115 90.8474 23.678 89.9581 22.804C89.0687 21.93 88.6241 20.734 88.6241 19.216C88.6241 18.158 88.8464 17.1767 89.2911 16.272C89.7357 15.352 90.3491 14.6237 91.1311 14.087C91.9284 13.5503 92.8254 13.282 93.8221 13.282C94.7114 13.282 95.4244 13.5503 95.9611 14.087C96.4977 14.6083 96.7661 15.3213 96.7661 16.226C96.7661 17.284 96.3827 18.1963 95.6161 18.963C94.8647 19.7143 93.5844 20.3123 91.7751 20.757C92.1584 21.4623 92.8867 21.815 93.9601 21.815C94.6501 21.815 95.4321 21.5773 96.3061 21.102C97.1954 20.6113 97.9621 19.975 98.6061 19.193C98.7901 18.9783 98.9971 18.871 99.2271 18.871ZM93.4311 15.536C92.8637 15.536 92.3807 15.8657 91.9821 16.525C91.5987 17.1843 91.4071 17.9817 91.4071 18.917V18.963C92.3117 18.7483 93.0247 18.4263 93.5461 17.997C94.0674 17.5677 94.3281 17.0693 94.3281 16.502C94.3281 16.2107 94.2437 15.9807 94.0751 15.812C93.9217 15.628 93.7071 15.536 93.4311 15.536ZM101.816 24.621C101.019 24.621 100.406 24.437 99.9764 24.069C99.5624 23.701 99.3554 23.287 99.3554 22.827C99.3554 22.4283 99.501 22.0833 99.7924 21.792C100.084 21.5007 100.513 21.355 101.08 21.355C101.28 21.355 101.51 21.378 101.77 21.424C102.046 21.4547 102.253 21.4777 102.391 21.493C102.376 21.0943 102.284 20.7187 102.115 20.366C101.962 20.0133 101.763 19.676 101.517 19.354C101.272 19.0167 101.042 18.7253 100.827 18.48C100.352 19.3847 99.8767 20.136 99.4014 20.734C98.9414 21.332 98.4354 21.8993 97.8834 22.436C97.6074 22.712 97.316 22.85 97.0094 22.85C96.764 22.85 96.5647 22.7657 96.4114 22.597C96.258 22.413 96.1814 22.1907 96.1814 21.93C96.1814 21.6233 96.2887 21.3397 96.5034 21.079L96.8024 20.711C97.6457 19.6683 98.282 18.8097 98.7114 18.135C98.9874 17.6903 99.2634 17.1613 99.5394 16.548C99.8307 15.9347 100.206 15.099 100.666 14.041C100.958 13.3663 101.563 13.029 102.483 13.029C102.913 13.029 103.212 13.0673 103.38 13.144C103.549 13.2207 103.633 13.3433 103.633 13.512C103.633 13.604 103.603 13.7497 103.541 13.949C103.48 14.1483 103.396 14.3477 103.288 14.547C103.012 15.099 102.874 15.5667 102.874 15.95C102.874 16.18 102.951 16.433 103.104 16.709C103.273 16.985 103.526 17.33 103.863 17.744C104.354 18.388 104.722 18.94 104.967 19.4C105.228 19.8447 105.358 20.3353 105.358 20.872C105.358 21.516 105.205 22.1293 104.898 22.712C104.607 23.2793 104.193 23.7393 103.656 24.092C103.12 24.4447 102.506 24.621 101.816 24.621Z" fill="#0E121B"/>
</g>
<defs>
<clipPath id="clip0_1_1275">
<rect width="106" height="28" fill="white" transform="translate(0 0.5)"/>
</clipPath>
</defs>
</svg>
